<svg width="141" height="141" viewBox="0 0 141 141" fill="none" xmlns="http://www.w3.org/2000/svg">
<path d="M50.7269 96.8824C52.6681 102.417 55.8144 107.451 59.9385 111.621C64.0627 115.792 69.0616 118.994 74.5742 120.997C80.0868 122.999 85.9754 123.752 91.8145 123.202C97.6537 122.651 103.298 120.81 108.339 117.812L122.053 121.723C122.618 121.882 123.215 121.887 123.783 121.739C124.351 121.59 124.869 121.293 125.284 120.878C125.699 120.463 125.996 119.945 126.145 119.377C126.293 118.809 126.288 118.212 126.129 117.647L122.218 103.932C125.71 98.0722 127.628 91.4095 127.787 84.59C127.947 77.7705 126.342 71.0254 123.128 65.0084C119.915 58.9914 115.202 53.9065 109.445 50.2464C103.689 46.5863 97.085 44.4752 90.273 44.1176" stroke="#00875F" stroke-width="6" stroke-linecap="round" stroke-linejoin="round"/>
<path d="M18.7816 77.4949C13.8431 69.1746 12.1121 59.3376 13.9137 49.8312C15.7154 40.3249 20.9257 31.8033 28.5662 25.867C36.2066 19.9307 45.7515 16.988 55.4082 17.5917C65.0649 18.1954 74.169 22.3039 81.0107 29.1455C87.8523 35.9872 91.9608 45.0913 92.5645 54.748C93.1682 64.4047 90.2255 73.9496 84.2892 81.5901C78.3529 89.2305 69.8314 94.4409 60.325 96.2425C50.8187 98.0441 40.9816 96.3131 32.6613 91.3746L18.9469 95.2851C18.3818 95.444 17.7846 95.4495 17.2167 95.3011C16.6488 95.1526 16.1307 94.8556 15.7157 94.4406C15.3006 94.0255 15.0036 93.5074 14.8551 92.9395C14.7067 92.3716 14.7122 91.7744 14.8711 91.2094L18.7816 77.4949Z" stroke="#29292E" stroke-width="6" stroke-linecap="round" stroke-linejoin="round"/>
<path d="M17.2312 130.647C16.1809 130.647 15.1956 130.453 14.275 130.064C13.3674 129.662 12.5701 129.111 11.8829 128.41C11.2087 127.697 10.6771 126.868 10.2881 125.921C9.91212 124.975 9.72412 123.95 9.72412 122.848C9.72412 121.759 9.91212 120.748 10.2881 119.814C10.6771 118.868 11.2087 118.045 11.8829 117.344C12.5701 116.631 13.3674 116.074 14.275 115.672C15.1826 115.27 16.168 115.069 17.2312 115.069C18.2295 115.069 19.0852 115.199 19.7983 115.458C20.5244 115.717 21.2505 116.145 21.9765 116.742C22.0803 116.819 22.1581 116.904 22.2099 116.994C22.2747 117.072 22.3136 117.156 22.3266 117.247C22.3525 117.325 22.3655 117.422 22.3655 117.539C22.3655 117.785 22.2747 117.993 22.0932 118.161C21.9247 118.317 21.7172 118.408 21.4709 118.434C21.2245 118.446 20.9847 118.362 20.7513 118.181C20.2716 117.766 19.7724 117.448 19.2538 117.228C18.7481 117.007 18.0739 116.897 17.2312 116.897C16.4662 116.897 15.7466 117.053 15.0724 117.364C14.3982 117.675 13.8018 118.103 13.2832 118.647C12.7775 119.192 12.3821 119.827 12.0968 120.553C11.8116 121.266 11.6689 122.031 11.6689 122.848C11.6689 123.678 11.8116 124.456 12.0968 125.182C12.3821 125.895 12.7775 126.524 13.2832 127.069C13.8018 127.613 14.3982 128.041 15.0724 128.352C15.7466 128.65 16.4662 128.799 17.2312 128.799C17.8924 128.799 18.5147 128.689 19.0982 128.469C19.6946 128.235 20.2651 127.918 20.8096 127.516C21.043 127.347 21.2699 127.276 21.4903 127.302C21.7237 127.315 21.9182 127.406 22.0738 127.574C22.2294 127.73 22.3072 127.95 22.3072 128.235C22.3072 128.365 22.2812 128.495 22.2294 128.624C22.1775 128.741 22.0997 128.851 21.996 128.955C21.2958 129.513 20.5438 129.934 19.74 130.219C18.9491 130.504 18.1128 130.647 17.2312 130.647Z" fill="url(#paint0_linear_425_392)"/>
<path d="M26.3396 126.582C26.0544 126.582 25.8145 126.492 25.62 126.31C25.4385 126.116 25.3478 125.876 25.3478 125.59V116.255C25.3478 115.957 25.4385 115.717 25.62 115.536C25.8145 115.354 26.0544 115.263 26.3396 115.263C26.6378 115.263 26.8777 115.354 27.0592 115.536C27.2407 115.717 27.3315 115.957 27.3315 116.255V125.59C27.3315 125.876 27.2407 126.116 27.0592 126.31C26.8777 126.492 26.6378 126.582 26.3396 126.582ZM34.3329 130.472C34.0476 130.472 33.8078 130.381 33.6133 130.2C33.4318 130.005 33.341 129.765 33.341 129.48V124.696C33.341 123.957 33.2049 123.354 32.9326 122.887C32.6603 122.42 32.2908 122.077 31.824 121.856C31.3703 121.623 30.8452 121.506 30.2487 121.506C29.7042 121.506 29.2115 121.617 28.7707 121.837C28.3298 122.057 27.9798 122.356 27.7205 122.732C27.4612 123.095 27.3315 123.516 27.3315 123.996H26.1063C26.1063 123.179 26.3007 122.453 26.6897 121.818C27.0916 121.169 27.6362 120.657 28.3234 120.281C29.0105 119.905 29.782 119.717 30.6377 119.717C31.5323 119.717 32.3297 119.912 33.0298 120.301C33.7429 120.677 34.3005 121.234 34.7024 121.973C35.1173 122.712 35.3247 123.62 35.3247 124.696V129.48C35.3247 129.765 35.2275 130.005 35.033 130.2C34.8515 130.381 34.6181 130.472 34.3329 130.472ZM26.3396 130.472C26.0544 130.472 25.8145 130.381 25.62 130.2C25.4385 130.005 25.3478 129.765 25.3478 129.48V120.806C25.3478 120.508 25.4385 120.268 25.62 120.087C25.8145 119.905 26.0544 119.814 26.3396 119.814C26.6378 119.814 26.8777 119.905 27.0592 120.087C27.2407 120.268 27.3315 120.508 27.3315 120.806V129.48C27.3315 129.765 27.2407 130.005 27.0592 130.2C26.8777 130.381 26.6378 130.472 26.3396 130.472Z" fill="url(#paint1_linear_425_392)"/>
<path d="M43.0577 130.53C42.1112 130.53 41.262 130.297 40.51 129.83C39.758 129.35 39.1616 128.709 38.7207 127.905C38.2929 127.088 38.0789 126.167 38.0789 125.143C38.0789 124.119 38.3123 123.198 38.7791 122.382C39.2588 121.565 39.9006 120.923 40.7045 120.456C41.5213 119.976 42.4354 119.737 43.4467 119.737C44.458 119.737 45.3656 119.976 46.1694 120.456C46.9733 120.923 47.6086 121.565 48.0754 122.382C48.5551 123.198 48.795 124.119 48.795 125.143H48.0365C48.0365 126.167 47.8161 127.088 47.3752 127.905C46.9474 128.709 46.3574 129.35 45.6054 129.83C44.8534 130.297 44.0042 130.53 43.0577 130.53ZM43.4467 128.78C44.1079 128.78 44.6978 128.624 45.2165 128.313C45.7351 127.989 46.1435 127.555 46.4417 127.01C46.7399 126.453 46.889 125.83 46.889 125.143C46.889 124.443 46.7399 123.821 46.4417 123.276C46.1435 122.719 45.7351 122.284 45.2165 121.973C44.6978 121.649 44.1079 121.487 43.4467 121.487C42.7984 121.487 42.2085 121.649 41.6769 121.973C41.1583 122.284 40.7434 122.719 40.4322 123.276C40.134 123.821 39.9849 124.443 39.9849 125.143C39.9849 125.83 40.134 126.453 40.4322 127.01C40.7434 127.555 41.1583 127.989 41.6769 128.313C42.2085 128.624 42.7984 128.78 43.4467 128.78ZM47.8031 130.472C47.5178 130.472 47.278 130.381 47.0835 130.2C46.902 130.005 46.8112 129.765 46.8112 129.48V126.505L47.1807 124.443L48.795 125.143V129.48C48.795 129.765 48.6977 130.005 48.5032 130.2C48.3217 130.381 48.0883 130.472 47.8031 130.472Z" fill="url(#paint2_linear_425_392)"/>
<path d="M55.6175 130.453C54.9692 130.453 54.3858 130.29 53.8672 129.966C53.3485 129.629 52.9401 129.175 52.6419 128.605C52.3437 128.034 52.1946 127.393 52.1946 126.68V117.403C52.1946 117.118 52.2854 116.884 52.4669 116.703C52.6484 116.521 52.8818 116.43 53.167 116.43C53.4523 116.43 53.6856 116.521 53.8672 116.703C54.0487 116.884 54.1394 117.118 54.1394 117.403V126.68C54.1394 127.198 54.282 127.633 54.5673 127.983C54.8525 128.333 55.2026 128.508 55.6175 128.508H56.2787C56.5121 128.508 56.7066 128.598 56.8622 128.78C57.0307 128.962 57.115 129.195 57.115 129.48C57.115 129.765 57.0048 129.999 56.7844 130.18C56.5769 130.362 56.3047 130.453 55.9676 130.453H55.6175ZM51.3 121.876C51.0277 121.876 50.8073 121.798 50.6387 121.642C50.4702 121.487 50.3859 121.292 50.3859 121.059C50.3859 120.8 50.4702 120.592 50.6387 120.437C50.8073 120.281 51.0277 120.203 51.3 120.203H55.7925C56.0648 120.203 56.2852 120.281 56.4538 120.437C56.6223 120.592 56.7066 120.8 56.7066 121.059C56.7066 121.292 56.6223 121.487 56.4538 121.642C56.2852 121.798 56.0648 121.876 55.7925 121.876H51.3Z" fill="url(#paint3_linear_425_392)"/>
<defs>
<linearGradient id="paint0_linear_425_392" x1="9.72412" y1="115.069" x2="64.8276" y2="131.276" gradientUnits="userSpaceOnUse">
<stop stop-color="#29292E"/>
<stop offset="1" stop-color="#00875F"/>
</linearGradient>
<linearGradient id="paint1_linear_425_392" x1="9.72412" y1="115.069" x2="64.8276" y2="131.276" gradientUnits="userSpaceOnUse">
<stop stop-color="#29292E"/>
<stop offset="1" stop-color="#00875F"/>
</linearGradient>
<linearGradient id="paint2_linear_425_392" x1="9.72412" y1="115.069" x2="64.8276" y2="131.276" gradientUnits="userSpaceOnUse">
<stop stop-color="#29292E"/>
<stop offset="1" stop-color="#00875F"/>
</linearGradient>
<linearGradient id="paint3_linear_425_392" x1="9.72412" y1="115.069" x2="64.8276" y2="131.276" gradientUnits="userSpaceOnUse">
<stop stop-color="#29292E"/>
<stop offset="1" stop-color="#00875F"/>
</linearGradient>
</defs>
</svg>
